<?xml version="1.0" standalone="no"?>
<!DOCTYPE svg PUBLIC "-//W3C//DTD SVG 20010904//EN"
 "http://www.w3.org/TR/2001/REC-SVG-20010904/DTD/svg10.dtd">
<svg version="1.0" xmlns="http://www.w3.org/2000/svg"
  viewBox="0 0 903.000000 560.000000"
  
 preserveAspectRatio="xMidYMid meet">

<g transform="translate(0.000000,560.000000) scale(0.100000,-0.100000)"
fill="#200F07"  >
<path d="M6025 5368 c-675 -236 -1124 -401 -1159 -425 -22 -16 -102 -99 -176
-184 -74 -86 -252 -289 -395 -453 -309 -354 -330 -381 -351 -465 -20 -82 -13
-138 32 -249 18 -47 34 -92 34 -99 0 -10 -33 -13 -149 -13 -160 0 -190 -6
-234 -48 -66 -62 -62 -2 -65 -931 l-2 -844 -78 0 c-42 1 -85 1 -94 2 -17 1
-18 74 -20 1279 l-3 1277 -33 67 c-36 73 -87 124 -161 160 l-46 23 -970 0
-970 0 -45 -24 c-142 -76 -131 -52 -402 -881 l-233 -715 -3 -596 -3 -596 -42
-13 c-107 -32 -193 -105 -243 -205 -28 -58 -29 -65 -29 -200 0 -138 0 -141 33
-207 53 -109 155 -186 274 -208 28 -6 153 -10 278 -10 l227 0 13 -43 c6 -23
27 -73 46 -112 135 -283 379 -475 688 -541 116 -25 301 -20 421 11 316 80 561
298 677 603 l31 82 708 0 707 0 18 -53 c108 -329 407 -587 754 -647 90 -16
260 -14 350 3 338 67 614 305 731 630 l24 67 156 0 157 0 6 -31 c9 -46 78
-188 126 -260 96 -142 271 -285 428 -349 251 -102 537 -97 778 15 226 104 414
305 500 534 l33 86 138 6 c84 4 154 13 179 22 98 36 177 109 221 202 26 57 28
68 28 200 0 131 -2 144 -27 197 -55 117 -162 197 -293 218 -38 6 -145 10 -237
9 l-168 -2 -78 80 c-85 86 -207 171 -316 221 -67 30 -70 33 -92 89 -13 32 -76
195 -140 362 l-116 304 123 121 c118 115 252 244 549 531 846 817 795 758 795
915 l0 95 -174 424 c-95 234 -184 442 -198 462 -28 43 -67 75 -133 110 l-45
24 -1125 2 -1125 3 -90 -32z m2421 -663 c86 -209 160 -390 165 -403 8 -20 3
-29 -28 -61 -21 -20 -222 -214 -448 -431 -521 -501 -608 -585 -783 -755 l-142
-140 -585 -251 -585 -251 -123 18 c-970 143 -1201 179 -1212 191 -11 11 -465
1127 -465 1143 0 3 109 130 243 282 133 152 315 360 404 462 l161 186 554 196
553 197 1068 -1 1068 -2 155 -380z m-5388 -1789 c1 -784 -1 -1243 -8 -1250 -5
-5 -79 -8 -175 -7 l-166 2 -87 87 c-393 393 -1013 385 -1395 -17 l-72 -76
-170 5 -170 5 -3 553 -2 553 101 312 c158 490 216 667 286 880 l65 197 896 -2
897 -3 3 -1239z m1218 -74 l135 -332 -54 -128 c-90 -211 -288 -683 -296 -705
-7 -18 -16 -20 -97 -19 l-89 0 -3 749 c-1 411 0 754 3 761 3 9 36 12 136 10
l131 -3 134 -333z m2999 -537 c54 -141 96 -258 93 -261 -3 -2 -47 -11 -99 -19
-219 -33 -401 -127 -558 -289 l-73 -76 -319 -1 -318 -1 -63 67 c-327 350 -844
414 -1244 153 -43 -29 -117 -90 -163 -136 -59 -60 -92 -86 -112 -88 -16 -2
-29 0 -29 5 0 5 38 98 84 207 46 110 107 253 134 319 40 96 54 120 69 118 51
-7 870 -128 1078 -159 132 -20 268 -36 303 -36 60 0 92 13 540 206 262 112
497 214 522 225 25 11 48 21 51 21 3 0 50 -115 104 -255z m-5200 -590 c115
-24 227 -87 321 -180 136 -135 196 -273 198 -455 1 -128 -12 -187 -71 -309
-37 -77 -59 -108 -122 -172 -64 -63 -95 -85 -172 -122 -143 -68 -251 -87 -384
-67 -145 22 -259 77 -364 175 -274 256 -280 688 -13 950 163 161 385 226 607
180z m3290 0 c83 -17 212 -79 275 -132 105 -87 177 -194 221 -328 33 -101 34
-269 1 -375 -63 -200 -217 -364 -413 -438 -355 -132 -763 83 -865 458 -12 44
-18 100 -18 175 1 93 5 122 28 190 40 118 80 181 171 271 63 63 100 91 166
123 138 68 285 87 434 56z m2253 -19 c109 -38 179 -82 262 -166 128 -128 190
-279 190 -463 0 -205 -78 -374 -232 -505 -70 -59 -194 -123 -278 -143 -77 -18
-231 -16 -310 4 -428 111 -632 605 -408 985 66 112 200 225 328 276 133 53
316 58 448 12z m-6622 -368 c-4 -13 -11 -59 -17 -103 -6 -44 -13 -86 -15 -92
-3 -10 -54 -13 -212 -13 -197 0 -211 1 -236 21 -24 19 -26 26 -26 94 0 68 2
75 26 94 25 20 39 21 257 21 l229 0 -6 -22z m3294 10 c-1 -7 -7 -42 -15 -78
-8 -36 -14 -82 -15 -102 l0 -38 -678 0 -678 0 -12 88 c-7 48 -15 99 -18 115
l-6 27 711 0 c562 0 711 -3 711 -12z m2187 -1 c-6 -17 -24 -111 -32 -170 l-6
-48 -122 3 -122 3 -3 30 c-2 31 -20 134 -29 173 l-5 22 162 0 c127 0 161 -3
157 -13z m2096 2 c44 -20 61 -100 37 -165 -18 -46 -37 -53 -136 -54 l-91 0
-11 78 c-7 42 -15 94 -18 115 l-7 37 101 0 c56 0 112 -5 125 -11z"/>
<path d="M1571 3958 c-45 -12 -77 -35 -102 -69 -11 -15 -92 -236 -179 -489
-173 -498 -179 -524 -140 -599 27 -53 71 -87 129 -100 68 -14 1243 -15 1308
-1 61 14 110 52 134 104 17 38 19 74 19 526 0 452 -2 488 -19 526 -23 51 -72
90 -131 103 -58 14 -972 13 -1019 -1z m859 -628 l0 -330 -475 0 c-261 0 -475
2 -475 4 0 8 219 637 225 646 4 6 148 10 366 10 l359 0 0 -330z"/>
<path d="M1795 1503 c-123 -44 -215 -126 -273 -242 -32 -65 -37 -84 -40 -166
-8 -186 72 -336 228 -428 222 -130 523 -32 636 208 108 227 8 499 -223 608
-61 28 -79 32 -173 34 -81 3 -116 -1 -155 -14z m216 -309 c64 -33 89 -136 49
-202 -31 -51 -76 -74 -136 -69 -82 6 -137 63 -137 143 0 57 29 104 83 132 48
25 89 23 141 -4z"/>
<path d="M5107 1510 c-64 -16 -139 -60 -197 -116 -103 -98 -146 -210 -137
-357 4 -78 9 -98 46 -172 135 -272 486 -340 712 -137 107 96 154 213 147 366
-3 83 -8 102 -41 168 -47 97 -118 168 -215 216 -70 34 -82 37 -176 39 -56 1
-118 -2 -139 -7z m195 -316 c53 -27 84 -103 68 -164 -5 -20 -25 -51 -44 -70
-29 -27 -45 -34 -88 -37 -178 -13 -221 235 -50 287 31 10 76 3 114 -16z"/>
<path d="M7265 1499 c-162 -56 -274 -188 -305 -357 -41 -228 108 -458 335
-517 224 -58 464 66 545 281 91 244 -43 518 -291 595 -83 26 -205 25 -284 -2z
m225 -308 c40 -28 70 -80 70 -120 0 -83 -67 -151 -149 -151 -60 0 -104 28
-132 81 -39 78 -12 154 72 197 50 26 97 23 139 -7z"/>
</g>
</svg>
